<svg width="12" height="12" viewBox="0 0 12 12" fill="none" xmlns="http://www.w3.org/2000/svg">
<path d="M4.55349 2.724C4.85249 1.849 6.06149 1.8225 6.41599 2.6445L6.44599 2.7245L6.84949 3.9045C6.94196 4.17512 7.09139 4.42276 7.28771 4.63071C7.48402 4.83867 7.72265 5.00211 7.98749 5.11L8.09599 5.1505L9.27599 5.5535C10.151 5.8525 10.1775 7.0615 9.35599 7.416L9.27599 7.446L8.09599 7.8495C7.82528 7.94191 7.57755 8.09131 7.3695 8.28763C7.16145 8.48394 6.99794 8.7226 6.88999 8.9875L6.84949 9.0955L6.44649 10.276C6.14749 11.151 4.93849 11.1775 4.58449 10.356L4.55349 10.276L4.15049 9.096C4.05808 8.82529 3.90868 8.57755 3.71236 8.36951C3.51605 8.16146 3.27739 7.99795 3.01249 7.89L2.90449 7.8495L1.72449 7.4465C0.848991 7.1475 0.822491 5.9385 1.64449 5.5845L1.72449 5.5535L2.90449 5.1505C3.17511 5.05803 3.42275 4.9086 3.6307 4.71229C3.83866 4.51597 4.0021 4.27735 4.10999 4.0125L4.15049 3.9045L4.55349 2.724ZM5.49999 3.047L5.09699 4.227C4.95619 4.63965 4.72713 5.01665 4.42576 5.33175C4.12439 5.64684 3.75796 5.89246 3.35199 6.0515L3.22699 6.097L2.04699 6.5L3.22699 6.903C3.63964 7.0438 4.01664 7.27287 4.33174 7.57423C4.64684 7.8756 4.89245 8.24203 5.05149 8.648L5.09699 8.773L5.49999 9.953L5.90299 8.773C6.0438 8.36035 6.27286 7.98335 6.57422 7.66825C6.87559 7.35316 7.24202 7.10754 7.64799 6.9485L7.77299 6.9035L8.95299 6.5L7.77299 6.097C7.36034 5.9562 6.98334 5.72713 6.66824 5.42577C6.35315 5.1244 6.10753 4.75797 5.94849 4.352L5.90349 4.227L5.49999 3.047ZM9.49999 1C9.59353 1 9.6852 1.02624 9.76457 1.07574C9.84394 1.12523 9.90783 1.196 9.94899 1.28L9.97299 1.3385L10.148 1.8515L10.6615 2.0265C10.7552 2.05835 10.8374 2.11731 10.8976 2.19591C10.9578 2.27451 10.9933 2.36921 10.9996 2.46801C11.0059 2.56681 10.9828 2.66527 10.9331 2.75089C10.8834 2.83652 10.8094 2.90547 10.7205 2.949L10.6615 2.973L10.1485 3.148L9.97349 3.6615C9.94159 3.75521 9.88258 3.83735 9.80395 3.8975C9.72532 3.95764 9.63061 3.9931 9.53181 3.99936C9.43301 4.00563 9.33458 3.98242 9.24898 3.93269C9.16339 3.88296 9.09448 3.80893 9.05099 3.72L9.02699 3.6615L8.85199 3.1485L8.33849 2.9735C8.24475 2.94165 8.16257 2.88269 8.10238 2.80409C8.04218 2.72549 8.00667 2.63079 8.00035 2.53199C7.99403 2.43319 8.01719 2.33473 8.06688 2.24911C8.11658 2.16348 8.19057 2.09453 8.27949 2.051L8.33849 2.027L8.85149 1.852L9.02649 1.3385C9.06021 1.23971 9.12399 1.15395 9.20891 1.09325C9.29382 1.03254 9.39561 0.999937 9.49999 1Z" fill="#2D3D8B"/>
</svg>
