<svg width="15" height="15" viewBox="0 0 15 15" fill="none" xmlns="http://www.w3.org/2000/svg">
<path d="M4.5 5.5H9.5M4.5 7.5H10.5M4.5 9.5H7.5M13.5 12.5V2.5C13.5 1.96957 13.2893 1.46086 12.9142 1.08579C12.5391 0.710714 12.0304 0.5 11.5 0.5H3.5C2.96957 0.5 2.46086 0.710714 2.08579 1.08579C1.71071 1.46086 1.5 1.96957 1.5 2.5V12.5C1.5 13.0304 1.71071 13.5391 2.08579 13.9142C2.46086 14.2893 2.96957 14.5 3.5 14.5H11.5C12.0304 14.5 12.5391 14.2893 12.9142 13.9142C13.2893 13.5391 13.5 13.0304 13.5 12.5Z" stroke="#2D3D8B" stroke-linecap="round" stroke-linejoin="round"/>
</svg>
