<svg width="107" height="121" viewBox="0 0 107 121" fill="none" xmlns="http://www.w3.org/2000/svg">
<path d="M105.641 138.066C106.501 138.003 106.868 136.901 106.088 136.42C105.754 136.215 105.396 136.071 105.026 135.966C105.04 135.285 105.038 134.597 105.021 133.902C105.371 133.846 105.709 133.764 105.995 133.613C106.582 133.304 106.582 132.363 105.995 132.054C105.661 131.88 105.293 131.801 104.916 131.759C104.886 131.343 104.86 130.93 104.819 130.51C105.069 130.467 105.321 130.433 105.568 130.38C106.464 130.189 106.373 128.906 105.568 128.664C105.257 128.57 104.927 128.514 104.593 128.476C104.509 127.788 104.419 127.117 104.324 126.46C104.658 126.331 104.975 126.189 105.253 126.026C106.056 125.556 105.627 124.501 104.815 124.411C104.541 124.381 104.271 124.385 104.001 124.399C103.83 123.392 103.648 122.411 103.449 121.469C103.648 121.398 103.841 121.331 104.019 121.28C105.013 120.989 104.788 119.557 103.78 119.512C103.522 119.501 103.269 119.517 103.013 119.537C102.862 118.907 102.704 118.29 102.541 117.686C102.828 117.569 103.116 117.448 103.395 117.332C104.238 116.981 104.248 115.507 103.159 115.591C102.778 115.62 102.382 115.667 101.983 115.737C101.739 114.931 101.483 114.146 101.218 113.379C101.438 113.258 101.651 113.134 101.848 113C102.51 112.554 102.351 111.237 101.398 111.341C101.114 111.372 100.82 111.427 100.528 111.484C100.208 110.639 99.8756 109.813 99.5324 109.004C99.7592 108.897 99.9828 108.783 100.192 108.653C100.907 108.205 100.666 106.935 99.7405 106.989C99.3926 107.009 99.0571 107.079 98.7294 107.166C98.4654 106.587 98.1982 106.014 97.9264 105.445C98.2029 105.284 98.47 105.108 98.7123 104.888C99.3724 104.285 98.6859 103.144 97.8472 103.4C97.6282 103.468 97.3487 103.544 97.038 103.633C96.7305 103.018 96.4183 102.403 96.103 101.791C96.6746 101.457 97.2073 101.069 97.5925 100.556C98.0165 99.9907 97.431 99.2732 96.8408 99.2468C96.2304 99.2188 95.6169 99.4238 95.0267 99.6832C94.6446 98.9299 94.275 98.1782 93.9131 97.428C93.9488 97.4094 93.9861 97.3907 94.0218 97.3721C94.4722 97.1329 95.0748 96.9124 95.4134 96.5163C95.8933 95.9541 95.6588 95.2691 95.0127 94.9958C94.421 94.7473 93.6257 95.0066 92.9206 95.3173C92.6348 94.696 92.3553 94.0779 92.0803 93.4581C92.6674 93.1988 93.1365 92.9565 93.3601 92.8182C93.9954 92.4222 93.9302 91.3598 93.1443 91.175C92.4966 91.0212 91.8132 91.1175 91.1407 91.2993C90.7555 90.3938 90.3765 89.4914 90.0131 88.5952C90.5443 88.4166 91.0723 88.2349 91.588 88.033C92.5494 87.6556 92.363 86.4053 91.3519 86.2857C90.6204 86.2002 89.8888 86.3183 89.1728 86.5016C88.7939 85.5401 88.4289 84.5865 88.0685 83.6391C88.7022 83.316 89.3033 82.9526 89.7957 82.5131C90.2616 82.0968 90.0473 81.168 89.4105 81.0531C88.6898 80.9242 87.9474 81.1416 87.2392 81.4398C86.7623 80.1616 86.298 78.8989 85.8444 77.6532C86.4641 77.3845 87.0792 77.1019 87.6663 76.7726C88.4335 76.3424 88.1167 75.0486 87.2096 75.0905C86.4936 75.1231 85.7745 75.2893 85.0616 75.5083C84.6035 74.2549 84.153 73.0217 83.7042 71.8118C84.2851 71.5602 84.8535 71.2822 85.3816 70.9638C86.1442 70.504 85.8196 69.3174 84.9312 69.305C84.2416 69.2957 83.5675 69.4681 82.9059 69.6855C82.5409 68.7226 82.1728 67.7783 81.8047 66.8495C82.457 66.4689 83.0099 66.076 83.2833 65.8539C83.9107 65.3445 83.3718 64.3365 82.6542 64.3349C82.0594 64.3349 81.4925 64.5135 80.9427 64.7387C80.4876 63.6531 80.0247 62.5938 79.5495 61.5656C80.0822 61.3016 80.5854 60.9847 80.9924 60.5592C81.5919 59.9317 80.997 58.8787 80.1443 59.1039C79.6302 59.2405 79.127 59.4347 78.6254 59.6351C78.0119 58.4065 77.3719 57.2308 76.701 56.1047C77.226 55.7972 77.7354 55.4695 78.2091 55.0843C78.9142 54.5112 78.1579 53.3448 77.344 53.5964C76.7367 53.7843 76.1605 54.0515 75.592 54.3388C74.9211 53.3277 74.219 52.3616 73.4704 51.4561C74.0591 50.9778 74.6104 50.4574 75.05 49.8393C75.5951 49.0674 74.5545 48.1712 73.8106 48.5999C73.1862 48.9587 72.6177 49.4215 72.0431 49.8657C71.3348 49.128 70.5893 48.4337 69.8034 47.7876C70.3532 47.2937 70.8549 46.7501 71.1951 46.0993C71.5647 45.3895 70.7509 44.324 69.9914 44.8956C69.3282 45.3942 68.6898 45.9253 68.0468 46.4472C67.0295 45.7219 65.992 45.054 64.9374 44.4405C65.262 44.0118 65.5804 43.5785 65.8413 43.1141C66.2669 42.3624 65.3723 41.3063 64.5895 41.8607C63.9837 42.2894 63.4805 42.8206 63.0146 43.3875C62.0283 42.8827 61.0312 42.423 60.0279 42.0036C60.4255 41.2566 60.7454 40.4505 60.7563 39.649C60.7656 38.9392 59.7421 38.3972 59.2482 39.0247C58.731 39.6848 58.3706 40.4629 57.9684 41.2084C56.8656 40.8108 55.7567 40.4598 54.6508 40.1507C54.918 39.4813 55.2239 38.8259 55.3948 38.1394C55.5812 37.3876 54.73 36.5971 54.014 37.0801C53.1676 37.6517 52.7746 38.6457 52.4484 39.5931C51.2712 39.3229 50.1001 39.093 48.9399 38.9097C49.0253 38.158 49.1169 37.4032 49.1402 36.6483C49.1791 35.485 47.6119 35.4291 47.2407 36.3905C46.9658 37.1019 46.8493 37.8536 46.7468 38.6069C45.0974 38.4127 43.4836 38.2962 41.9243 38.2434C41.9196 37.4824 41.8528 36.6825 41.6509 35.9758C41.3869 35.0563 40.0434 35.047 39.7856 35.9758C39.5852 36.6949 39.5805 37.4606 39.5402 38.2077C38.7667 38.2124 38.0165 38.2341 37.2819 38.2683C37.2197 37.7775 37.1312 37.3053 37.0303 36.8984C36.7957 35.951 35.3063 35.9199 35.0888 36.8984C34.9785 37.3954 34.9646 37.9048 34.9708 38.4189C34.2703 38.478 33.5916 38.5478 32.9439 38.6271C32.728 37.8629 32.4609 37.1329 32.1068 36.4853C31.6765 35.6947 30.2802 36.0146 30.3579 36.959C30.4107 37.6097 30.4728 38.29 30.5489 38.9796C29.4664 39.1676 28.4957 39.3757 27.657 39.5916C27.3883 38.5991 27.0046 37.5771 26.5247 36.6872C26.0774 35.8562 24.737 36.2336 24.7572 37.1655C24.7821 38.2061 25.1393 39.1986 25.3847 40.2004C25.3925 40.233 25.3971 40.2672 25.4033 40.3014C24.3938 40.6772 23.4215 41.1012 22.4849 41.5672C22.0967 40.6943 21.7022 39.8354 21.0762 39.1023C20.4317 38.3475 19.3615 39.1676 19.5355 40C19.7172 40.8683 20.0729 41.6992 20.413 42.5146C20.4317 42.5643 20.4534 42.614 20.4736 42.6653C19.798 43.0675 19.1394 43.49 18.5058 43.9342C18.1656 43.4884 17.8022 43.0629 17.3657 42.7103C16.5239 42.0316 15.4134 42.8579 15.8825 43.855C16.1186 44.3582 16.3981 44.8381 16.6761 45.3181C16.1294 45.7623 15.5967 46.2173 15.0857 46.6879C14.8341 46.4317 14.5701 46.1894 14.275 45.9797C13.5823 45.4873 12.669 46.2965 12.8864 47.0467C13.0138 47.4832 13.2328 47.8746 13.486 48.2473C11.9561 49.8393 10.608 51.526 9.44154 53.236C5.49341 59.0231 3.37801 65.4749 1.96775 71.8708C0.647563 77.8551 -0.275012 83.9948 0.0744481 90.0676C0.195594 92.1783 0.461184 94.3434 0.882089 96.5179C1.74098 100.961 2.35914 100.836 6.3989 100.871C8.95229 100.895 12.1891 100.921 15.7629 100.947C15.634 102.44 15.6619 104.27 15.8141 106.186C16.0502 109.145 16.7833 112.132 17.8783 114.971C16.9153 115.701 16.0471 116.552 15.328 117.543C13.1349 120.57 14.3014 123.88 17.5071 125.824C19.2684 126.895 20.0387 126.259 19.1876 124.593C18.1439 122.546 17.7152 121.14 19.3025 119.38C19.433 119.236 19.5728 119.099 19.7126 118.961C22.5548 124.209 26.6676 128.516 31.237 130.445C43.479 135.617 58.133 129.044 66.4346 127.833C73.5791 126.79 81.5857 127.393 87.3199 135.049C89.3981 137.821 89.9463 140.415 90.4185 143.92C91.5383 152.223 85.4996 158.394 79.0074 160.085C69.2334 162.631 56.3391 153.12 62.0796 142.65C64.0133 139.126 68.0142 136.715 72.0322 137.861C75.1478 138.75 77.1871 141.152 77.3657 143.515C77.7105 148.041 73.3555 149.443 71.0056 147.478C69.5161 146.231 69.1449 143.846 71.4933 143.055C73.444 142.398 72.8166 139.932 70.8363 140.499C68.1276 141.277 66.9596 143.276 66.9549 145.376C66.8524 145.416 66.7484 145.445 66.6536 145.503C65.8056 146.005 66.2436 147.14 67.1196 147.227C67.1631 147.232 67.1988 147.228 67.2423 147.232C67.5312 148.142 68.0344 149.001 68.7116 149.727C68.6789 149.807 68.6417 149.877 68.6168 149.964C68.3217 150.931 69.5875 151.67 70.2989 150.986C71.0879 151.448 71.9359 151.753 72.8026 151.914C72.8072 152.057 72.8212 152.2 72.8694 152.341C73.0744 152.939 73.9131 153.295 74.3899 152.742C74.5778 152.523 74.6912 152.285 74.7689 152.031C75.7613 151.964 76.7274 151.708 77.6189 151.267C77.7867 151.413 77.9699 151.535 78.1734 151.593C78.6254 151.719 79.127 151.442 79.2451 150.984C79.3149 150.715 79.2979 150.437 79.2451 150.164C80.1459 149.356 80.8836 148.306 81.3387 146.997C81.3636 146.997 81.3853 146.999 81.4086 146.997C82.3094 146.975 82.6449 145.779 81.8668 145.309C81.8249 145.284 81.7814 145.261 81.7394 145.236C81.7689 145.034 81.8093 144.841 81.8249 144.632C81.8854 143.877 81.8466 143.097 81.7239 142.319C81.8357 142.275 81.9522 142.244 82.0609 142.192C82.6232 141.915 82.648 140.941 82.0609 140.673C81.7922 140.55 81.5282 140.483 81.2579 140.444C80.9644 139.607 80.5637 138.787 80.0527 138.009C79.8617 137.717 79.6504 137.453 79.4345 137.189C79.5169 137.096 79.6054 137.006 79.6784 136.901C79.8508 136.65 79.8275 136.274 79.6784 136.019C79.461 135.65 79.0866 135.561 78.6921 135.619C78.4887 135.648 78.2852 135.726 78.0895 135.825C77.4931 135.325 76.8501 134.89 76.1652 134.534C76.2024 134.463 76.2397 134.393 76.2739 134.322C76.732 133.373 75.6666 132.624 74.876 133.244C74.6741 133.402 74.5017 133.585 74.348 133.784C73.4145 133.481 72.4453 133.275 71.4575 133.182C71.4513 132.911 71.4218 132.643 71.3379 132.38C71.0428 131.475 69.8298 131.498 69.527 132.38C69.4415 132.626 69.398 132.887 69.3701 133.149C68.4025 133.197 67.4411 133.331 66.5107 133.561C66.4408 133.238 66.3508 132.921 66.2156 132.602C66.065 132.248 65.568 132.107 65.2294 132.202C64.8193 132.313 64.6361 132.652 64.5864 133.043C64.5413 133.426 64.5584 133.809 64.5848 134.193C63.6514 134.57 62.7692 135.031 61.9833 135.594C61.9693 135.605 61.9553 135.617 61.9398 135.628C61.8016 135.393 61.64 135.177 61.4366 134.996C60.7609 134.393 59.7312 134.972 59.9331 135.872C60.0077 136.199 60.1614 136.502 60.2826 136.815C60.3074 136.875 60.3245 136.934 60.3447 136.993C59.6458 137.681 59.0354 138.424 58.5151 139.217C58.3567 139.109 58.1998 138.997 58.0491 138.888C57.431 138.439 56.423 139.189 56.7181 139.912C56.9107 140.381 57.1374 140.719 57.5055 141.028C57.1421 141.817 56.8485 142.634 56.628 143.474C56.3189 143.459 56.0067 143.465 55.7272 143.45C54.8869 143.401 54.4753 144.734 55.2845 145.09C55.5532 145.209 55.8918 145.372 56.2444 145.497C56.1387 146.323 56.0999 147.16 56.1201 147.999C55.6806 148.103 55.2752 148.3 55.0003 148.572C54.4163 149.148 54.8885 150.019 55.6247 150.08C55.8421 150.097 56.0642 150.089 56.2879 150.077C56.3873 150.759 56.5286 151.436 56.7072 152.105C56.3407 152.279 56.0145 152.529 55.7939 152.893C55.3901 153.559 56.0518 154.398 56.7911 154.19C56.9743 154.138 57.1607 154.107 57.3424 154.065C57.4791 154.412 57.6174 154.758 57.7758 155.098C57.869 155.302 57.973 155.499 58.074 155.698C57.8767 155.898 57.6981 156.109 57.5521 156.308C57.1079 156.912 57.8503 157.894 58.5539 157.611C58.7154 157.546 58.8909 157.476 59.068 157.403C59.4454 157.975 59.8508 158.523 60.2857 159.046C60.1459 159.214 60.0092 159.383 59.8663 159.548C59.2233 160.298 60.0263 161.437 60.938 160.935C61.1725 160.806 61.4086 160.657 61.6307 160.492C62.1681 161.011 62.7397 161.494 63.3345 161.948C63.2041 162.347 63.0736 162.744 62.9649 163.151C62.7474 163.973 63.8129 164.65 64.4217 163.998C64.6827 163.717 64.8846 163.431 65.0585 163.12C65.8957 163.628 66.7732 164.079 67.688 164.468C67.5684 164.961 67.4473 165.464 67.4846 165.97C67.5467 166.815 68.651 167.199 69.1185 166.413C69.3235 166.068 69.5285 165.652 69.6869 165.209C70.3796 165.428 71.0848 165.616 71.807 165.77C71.8334 166.258 71.9111 166.728 72.0477 167.143C72.2745 167.823 73.3353 168.112 73.6972 167.357C73.8805 166.978 73.9799 166.562 74.0451 166.132C75.0469 166.245 76.0689 166.298 77.1033 166.286C77.153 166.721 77.243 167.148 77.4279 167.559C77.754 168.288 78.877 168.041 79.0602 167.346C79.1612 166.963 79.1829 166.57 79.186 166.174C79.8586 166.11 80.5373 166.02 81.216 165.902C81.3247 166.197 81.4443 166.48 81.5686 166.731C81.9864 167.583 83.187 167.104 83.232 166.281C83.246 166.009 83.2351 165.737 83.2103 165.469C83.9496 165.279 84.6889 165.057 85.4266 164.799C85.5058 165.035 85.5851 165.271 85.6953 165.498C86.0339 166.2 87.2003 166.026 87.3572 165.281C87.438 164.9 87.4411 164.462 87.3929 164.015C88.1959 163.661 88.988 163.265 89.7692 162.831C89.9572 163.172 90.2026 163.47 90.5707 163.664C91.1407 163.964 92.0275 163.603 91.9623 162.864C91.9266 162.448 91.8132 162.063 91.6905 161.676C92.4189 161.198 93.1272 160.671 93.8277 160.123C94.0078 160.304 94.1973 160.477 94.4194 160.631C95.2301 161.191 95.9648 160.141 95.6355 159.413C95.5486 159.22 95.446 159.037 95.3482 158.854C96.0083 158.268 96.6591 157.664 97.285 157.016C97.3067 156.993 97.3269 156.968 97.3487 156.947C97.8317 157.248 98.3955 157.385 98.9313 157.091C99.2482 156.917 99.4625 156.463 99.3289 156.111C99.2109 155.796 98.995 155.546 98.7605 155.311C99.4842 154.399 100.147 153.426 100.75 152.393C100.992 152.492 101.235 152.581 101.463 152.647C102.356 152.904 102.917 151.796 102.333 151.155C102.142 150.947 101.932 150.767 101.713 150.597C102.176 149.65 102.591 148.659 102.957 147.635C103.372 147.721 103.79 147.758 104.217 147.684C105.069 147.538 104.986 146.444 104.433 146.04C104.19 145.863 103.906 145.73 103.616 145.615C103.846 144.81 104.041 143.982 104.215 143.142C104.667 143.083 105.097 142.991 105.45 142.884C106.264 142.639 106.276 141.463 105.45 141.224C105.164 141.142 104.875 141.09 104.588 141.053C104.734 140.076 104.849 139.084 104.923 138.069C105.159 138.082 105.397 138.088 105.635 138.069L105.641 138.066Z" fill="#A3AFF3"/>
<path d="M16.3002 15.4601C16.92 15.3405 17.5257 15.1385 18.1268 14.9196C19.391 14.6229 20.6382 14.202 21.8823 13.7873C22.5175 13.896 22.4492 14.6167 22.4523 15.6589C22.457 16.889 23.35 31.3535 23.583 37.3518C23.684 39.9238 23.8346 42.4912 23.948 45.0617C23.9822 45.8087 23.9542 47.4675 24.0707 48.2643C24.2027 49.1837 29.0268 49.2956 29.0936 48.022C29.1775 46.4362 28.9352 43.7322 28.9259 43.3283C28.8746 40.9598 28.8373 38.5866 28.7799 36.2133C28.8187 27.379 28.8498 18.4794 26.6536 9.99139C26.329 8.73178 25.015 8.08566 23.7973 8.36989C20.8355 9.06415 17.8891 10.0364 14.9925 10.9652C13.1271 11.5632 12.2403 13.1396 13.1877 14.5157C13.9752 15.6635 14.9987 15.7086 16.2987 15.4585L16.3002 15.4601Z" fill="white"/>
<path d="M40.8091 5.17044C42.5859 5.17355 44.4512 4.77594 46.2311 4.96853C46.2544 4.97319 46.2482 16.6296 46.1379 18.4453C46.0215 20.3153 45.8988 22.1837 45.7792 24.0522C45.7543 24.3038 45.7264 24.5569 45.7031 24.8101C45.0119 32.5526 44.1918 41.592 43.6808 49.3453C43.5846 50.7975 49.1076 51.1485 49.3716 49.6948C49.4539 49.2413 50.0426 38.2107 50.1187 33.9598C50.2476 26.663 50.9496 19.3834 51.2882 12.0944C51.4668 8.25502 53.1613 4.38299 50.142 1.24562C48.9305 -0.0124393 46.8959 0.361872 45.3241 0.183259C35.1851 -0.966077 36.5938 3.63903 37.2213 4.33329C38.0118 5.20772 39.7529 5.16889 40.8091 5.17044Z" fill="white"/>
<path d="M12.1626 86.0853C14.3013 87.699 18.0864 87.1057 20.0806 85.4423C22.4663 83.4574 22.8359 80.5794 22.4663 78.0431C22.1261 75.7149 20.7097 73.3308 18.3256 72.5169C15.5563 71.5711 11.9499 73.0341 10.6545 74.9337C9.89658 76.0473 9.46014 77.4249 9.32191 78.7109C9.01594 81.5392 9.82203 84.3225 12.1611 86.0853H12.1626Z" fill="white"/>
<path d="M42.4353 75.5051C42.2116 76.0099 42.0346 76.5348 41.8979 77.0753C41.1741 79.7934 41.4366 82.7785 42.9696 85.1362C43.8114 86.4331 44.8769 87.2516 46.0899 87.7114C50.4201 90.2088 56.6591 88.7535 59.0479 83.9931C62.0765 77.9498 58.4778 70.3906 51.4343 69.7305C47.1631 69.3297 43.9356 72.0058 42.4353 75.5035V75.5051Z" fill="white"/>
<path d="M70.1824 100.074C67.5094 100.133 64.9172 100.362 62.252 100.053C59.1146 99.6893 55.9989 100.132 52.8911 100.429C51.4855 100.562 49.8764 100.16 48.4382 100.189C46.5418 100.228 44.6438 100.258 42.7474 100.286C41.2129 100.309 39.7514 100.697 38.1951 100.63C36.3795 100.553 34.6089 100.323 32.787 100.441C31.2463 100.54 29.7537 100.691 28.2068 100.634C26.8493 100.582 25.4561 100.321 24.0987 100.45C21.6322 100.685 19.2031 100.663 16.7243 100.48C14.2687 100.298 11.7883 100.314 9.32659 100.332C7.67247 100.345 6.02458 100.373 4.37047 100.323C1.45519 100.236 1.61672 97.5615 0.805971 95.5905C0.762482 95.4864 0.593188 95.4895 0.596295 95.6185C0.63357 97.6609 0.941095 100.272 3.09066 101.078C3.95111 101.401 4.9793 101.452 5.9873 101.444C6.19387 103.446 6.70331 110.505 9.39493 109.264C10.594 108.712 11.0087 106.922 11.5057 105.824C12.1611 104.38 12.8662 102.935 13.4129 101.443C13.4502 101.443 13.4859 101.443 13.5232 101.443C15.62 101.437 17.7028 101.654 19.798 101.718C21.1647 101.76 22.4942 101.795 23.8439 101.576C25.4732 101.311 27.264 101.684 28.9057 101.746C30.6235 101.809 32.3304 101.519 34.0451 101.466C35.9058 101.409 37.7711 101.736 39.6349 101.752C41.3496 101.766 43.0767 101.365 44.81 101.337C45.9376 101.32 47.0699 101.277 48.2021 101.256C48.2021 101.289 48.1928 101.319 48.1974 101.354C48.4568 103.14 49.3204 112.029 52.9206 110.131C54.0994 109.51 54.5731 107.699 54.9692 106.534C55.5765 104.745 56.0952 102.926 56.6777 101.128C56.6948 101.073 56.6917 101.027 56.6948 100.977C58.0522 100.882 59.4392 100.895 60.7656 100.818C62.1261 100.741 63.4883 101.022 64.8504 100.992C66.6225 100.955 68.4258 100.707 70.1824 100.481C70.434 100.449 70.4526 100.068 70.1824 100.074ZM9.45861 107.475C9.00819 108.329 8.82026 108.194 8.36829 107.398C8.00174 106.748 7.84177 105.998 7.68801 105.278C7.41776 104.006 7.28108 102.709 7.08072 101.426C7.37893 101.418 7.67092 101.412 7.94739 101.415C9.35144 101.427 10.7555 101.433 12.1595 101.437C11.4109 103.484 10.4651 105.568 9.45705 107.475H9.45861ZM53.2514 107.752C53.0697 108.154 52.596 109.261 52.0198 109.165C51.2183 109.032 50.6312 107.23 50.4076 106.619C49.7801 104.909 49.5751 103.03 49.2645 101.241C49.7195 101.241 50.1746 101.244 50.6281 101.26C52.1052 101.309 53.2561 101.511 54.7409 101.214C54.9708 101.168 55.2099 101.149 55.4445 101.115C54.7502 103.328 54.2066 105.639 53.2514 107.752Z" fill="white"/>
<path d="M50.9341 47.6461C50.9155 47.539 50.7648 47.5359 50.7151 47.6182C49.7522 49.19 48.6991 49.9557 46.8089 50.0489C44.6609 50.1545 43.5054 48.7132 42.9726 46.8354C42.9571 46.7795 42.8763 46.7795 42.8608 46.8354C41.3247 52.2031 51.838 52.6923 50.9357 47.6477L50.9341 47.6461Z" fill="#0D0D0D"/>
<path d="M30.6483 45.686C30.6265 45.6193 30.5163 45.5866 30.4837 45.6643C29.8018 47.2656 29.0656 48.0763 27.3152 48.4553C25.3008 48.8902 23.6327 48.067 22.648 46.3322C22.6123 46.27 22.5268 46.3026 22.5222 46.3663C22.1261 51.352 32.102 50.3362 30.6498 45.686H30.6483Z" fill="#0D0D0D"/>
<path d="M62.4694 72.7453C61.0514 70.0242 58.7698 67.7675 55.7722 66.6057C51.6718 65.0168 47.5715 65.5667 44.2773 67.5298C42.4973 68.4866 40.9054 69.8673 39.6737 71.7001C38.3861 73.6167 37.6608 75.7957 37.4527 78.0168C37.4356 78.1395 37.4154 78.2606 37.4014 78.3833C37.0815 81.2023 37.6639 84.0927 39.0385 86.483C39.8974 88.0797 41.0824 89.3688 42.4911 90.3411C42.662 90.4793 42.8235 90.6253 43.0021 90.7557C47.4504 93.9956 53.3632 93.5079 57.7897 90.6952C57.7975 90.6905 57.8037 90.6859 57.8115 90.6812C59.4951 89.608 60.969 88.2101 62.0547 86.5374C62.6371 85.6412 63.0829 84.6876 63.4153 83.7044C63.8967 82.5178 64.2182 81.311 64.3192 80.1694C64.5599 77.4576 63.8408 74.9322 62.4694 72.7438V72.7453ZM48.8715 92.0682C48.7193 92.0526 48.5655 92.0355 48.4133 92.0138C48.3388 92.006 48.2642 91.9952 48.1897 91.9858C43.5147 91.2729 40.0201 87.6479 38.7123 83.2307C38.6968 83.1748 38.6843 83.1189 38.6688 83.063C37.2927 77.4436 39.6986 70.9266 45.0166 67.9632C47.7144 66.6554 50.8968 66.4255 53.8913 67.2425C57.4589 68.2163 60.5295 70.7449 62.2054 73.9506C64.2214 78.3771 63.3345 83.8799 60.2561 87.5966C60.1101 87.7737 59.9548 87.9414 59.7995 88.1076C57.0271 90.8924 53.0479 92.3772 48.8715 92.0666V92.0682Z" fill="#0D0D0D"/>
<path d="M25.0491 74.8015C24.8705 74.3806 24.6624 73.9861 24.4341 73.6117C23.9836 72.7684 23.4323 71.9918 22.7567 71.3364C20.5294 69.1775 17.4697 68.5314 14.6197 69.061C11.0723 69.4151 8.37442 71.9421 7.06045 75.2488C6.50131 76.6575 6.18136 78.2262 6.13011 79.8119C5.94528 82.6682 6.66906 85.5105 8.49401 87.4783C10.2864 89.5984 12.9718 90.3097 15.6494 90.1498C16.7941 90.1125 17.9263 89.8981 19.0011 89.513C19.3413 89.4042 19.6767 89.2878 19.9998 89.1557C21.7222 88.4537 23.0533 87.2267 24.01 85.7202C26.1099 82.6387 26.478 78.1656 25.0491 74.803V74.8015ZM20.7935 87.9303C18.8551 89.2318 16.4555 89.6512 14.1584 89.4105C12.5058 89.1899 10.9278 88.5702 9.67597 87.5141C8.58565 86.4688 7.80441 85.088 7.31517 83.6218C7.06511 82.8701 6.90824 82.0951 6.82282 81.3139C6.58984 77.9078 7.79043 74.2144 9.96641 71.9716C10.1683 71.7635 10.3811 71.5771 10.6001 71.4001C11.3052 70.8797 12.0771 70.4619 12.8957 70.1591C12.9423 70.1436 12.9857 70.1234 13.0323 70.1078C13.0556 70.1001 13.0805 70.0938 13.1038 70.0861C16.5502 69.0439 20.7593 70.3004 23.1449 72.8787C23.7631 73.5465 24.2213 74.3091 24.5676 75.1214C25.6719 78.2805 25.0817 82.1541 23.4944 85.0585C22.7722 86.2141 21.862 87.2127 20.7935 87.9303Z" fill="#0D0D0D"/>
<path d="M42.2348 115.929C42.1944 115.968 42.2224 116.052 42.2814 116.046C42.9508 115.982 43.5394 115.848 44.1856 116.086C44.4123 116.17 44.6018 116.325 44.7711 116.502C44.417 116.363 44.0054 116.331 43.5519 116.456C41.4598 117.034 39.3319 118.288 38.1065 119.989C36.5099 122.201 37.3284 125.4 39.0213 126.851C40.5853 128.191 41.5964 128.052 41.2982 126.205C41.0994 124.975 40.8106 123.245 41.7129 122.238C42.4181 121.449 43.4214 121.039 44.4232 120.676C44.9979 120.513 45.5259 120.261 45.8816 119.787C46.4283 119.056 46.5417 118.17 46.3258 117.298C45.9049 115.592 43.5721 114.639 42.2379 115.931L42.2348 115.929Z" fill="#0D0D0D"/>
<path d="M28.345 90.8551C27.9039 90.7324 27.3618 90.8504 27.0466 91.1983C26.5309 91.7668 26.3989 92.4688 26.534 93.2066C26.6505 93.8496 27.351 94.2984 27.9676 94.2984C28.783 94.2984 29.4477 93.6228 29.4539 92.812C29.4555 92.4921 29.4058 92.0945 29.2769 91.7885C29.089 91.3443 28.8389 90.9933 28.345 90.8566V90.8551Z" fill="#0D0D0D"/>
<path d="M31.3767 91.2417C30.8222 91.3955 30.5178 91.9049 30.5489 92.4439C30.5411 92.5075 30.5318 92.5697 30.524 92.6334C30.5163 92.7188 30.5225 92.8058 30.5209 92.8912C30.5194 93.3105 30.7554 93.7501 31.1313 93.952C31.546 94.1756 31.956 94.1772 32.3707 93.952C32.7404 93.7532 32.992 93.309 32.9796 92.8912C32.9687 92.4749 32.8864 92.1286 32.672 91.7698C32.4096 91.3272 31.8768 91.105 31.3783 91.2417H31.3767Z" fill="#0D0D0D"/>
<path d="M56.0254 81.9803C56.0145 81.9663 56.0036 81.9524 55.9943 81.9368C56.0921 82.3018 56.1915 82.6653 56.2894 83.0303C56.2878 82.9899 56.2847 82.9495 56.2816 82.9091C56.1869 83.257 56.0937 83.6049 55.9989 83.9513C56.0952 83.7913 56.044 83.855 55.8436 84.1408C56.1869 83.782 56.3903 83.3238 56.3903 82.8237C56.3903 82.1139 56.0129 81.6153 55.4678 81.2146C54.7906 80.7176 53.6832 80.7098 52.9936 81.1867C52.3366 81.6417 51.8955 82.2723 51.8955 83.1001C51.8955 84.0864 52.5711 84.9764 53.5232 85.2373C54.2858 85.447 55.1214 85.2264 55.6805 84.6673C56.3313 84.0165 56.6078 82.7755 56.0269 81.9819L56.0254 81.9803Z" fill="#A3AFF3"/>
<path d="M13.2452 79.0495C15.6774 79.0495 15.6774 75.2769 13.2452 75.2769C10.813 75.2769 10.813 79.0495 13.2452 79.0495Z" fill="#A3AFF3"/>
</svg>
