<svg width="109" height="39" viewBox="0 0 109 39" fill="none" xmlns="http://www.w3.org/2000/svg">
<path fill-rule="evenodd" clip-rule="evenodd" d="M22.102 30.1097V31.4987C22.102 33.7558 18.4898 35.5963 13.9744 35.5963H13.0019C8.48653 35.5963 4.80478 33.7558 4.80478 31.4987V30.1097C4.80478 27.8526 8.48653 26.0122 13.0019 26.0122H13.9744C18.4898 26.0122 22.102 27.8526 22.102 30.1097Z" fill="#A3AFF3"/>
<path d="M20.4469 10.2875H26.9068V37.7896H20.5031V36.8804C21.6266 35.9145 23.4241 34.0393 23.4241 32.3915V31.255C23.4241 31.255 20.1661 38.4715 12.9198 38.4715C5.78581 38.4715 0 32.6188 0 25.4023V22.7884C0 15.572 5.78581 9.71924 12.9198 9.71924C16.1778 9.71924 18.6494 10.742 20.4469 12.5035V10.2875ZM20.4469 25.2318V22.9589C20.4469 19.2654 17.5259 16.2538 13.8747 16.2538H13.0883C9.43705 16.2538 6.45988 19.2654 6.45988 22.9589V25.2318C6.45988 28.9253 9.43705 31.9369 13.0883 31.9369H13.8747C17.5259 31.9369 20.4469 28.9253 20.4469 25.2318Z" fill="#2D3D8B"/>
<path d="M8.64862 15.4697H11.5315L10.0901 20.2617L8.64862 15.4697Z" fill="#2D3D8B"/>
<path d="M15.3753 15.4697H18.2582L16.8168 20.2617L15.3753 15.4697Z" fill="#2D3D8B"/>
<path d="M97.4157 21.9411C102.023 23.377 108.588 25.1001 108.588 31.1311C108.588 35.5537 103.348 38.8277 97.3006 38.8277C93.5572 38.8277 89.5259 37.7364 86.2432 34.9219L88.662 28.7761C91.196 31.1885 95.8032 32.8542 99.201 32.8542C100.986 32.8542 102.426 32.3947 103.06 31.3034C104.154 29.5228 102.599 27.7423 95.8032 25.7319C90.5049 24.1811 85.149 21.3667 86.3008 15.8527C86.9343 12.5214 90.8505 9.82179 96.0336 9.82179C103.06 9.82179 107.206 12.5788 107.206 12.5788L104.902 18.7246C104.672 18.6672 99.4314 15.9102 95.9184 15.9102C94.709 15.9102 93.6724 16.2548 93.1541 17.1163C91.8871 19.1266 94.1907 20.9072 97.4157 21.9411Z" fill="#2D3D8B"/>
<path d="M75.2588 10.5111H81.8817V38.3108H75.3164V37.3918C76.4682 36.4153 78.3111 34.5199 78.3111 32.8542V31.7054C78.3111 31.7054 74.9709 39 67.5417 39C60.2278 39 54.296 33.0839 54.296 25.7894V23.1473C54.296 15.8527 60.2278 9.93668 67.5417 9.93668C70.882 9.93668 73.4159 10.9705 75.2588 12.7511V10.5111ZM75.2588 25.6171V23.3196C75.2588 19.5862 72.2641 16.542 68.5208 16.542H67.7145C63.9711 16.542 60.9188 19.5862 60.9188 23.3196V25.6171C60.9188 29.3505 63.9711 32.3947 67.7145 32.3947H68.5208C72.2641 32.3947 75.2588 29.3505 75.2588 25.6171Z" fill="#2D3D8B"/>
<path d="M46.9775 6.54786H46.632C44.9043 6.54786 43.5221 5.16937 43.5221 3.44624V3.10162C43.5221 1.3785 44.9043 0 46.632 0H46.9775C48.7052 0 50.145 1.3785 50.145 3.10162V3.44624C50.145 5.16937 48.7052 6.54786 46.9775 6.54786ZM50.145 38.3107H43.5221V10.511H50.145V38.3107Z" fill="#2D3D8B"/>
<path d="M38.3345 38.3107H31.7116V0H38.3345V38.3107Z" fill="#2D3D8B"/>
</svg>
