<svg width="181" height="51" viewBox="0 0 181 51" fill="none" xmlns="http://www.w3.org/2000/svg">
<path fill-rule="evenodd" clip-rule="evenodd" d="M28.9027 39.3742V41.1906C28.9027 44.1422 24.1789 46.549 18.2742 46.549H17.0024C11.0978 46.549 6.28318 44.1422 6.28318 41.1906V39.3742C6.28318 36.4226 11.0978 34.0159 17.0024 34.0159H18.2742C24.1789 34.0159 28.9027 36.4226 28.9027 39.3742Z" fill="#A3AFF3"/>
<path d="M26.7383 13.4528H35.1858V49.4172H26.8118V48.2283C28.2809 46.9651 30.6315 44.513 30.6315 42.3581V40.8719C30.6315 40.8719 26.371 50.3089 16.8951 50.3089C7.56606 50.3089 0 42.6553 0 33.2184V29.8003C0 20.3633 7.56606 12.7098 16.8951 12.7098C21.1556 12.7098 24.3877 14.0473 26.7383 16.3508V13.4528ZM26.7383 32.9954V30.0232C26.7383 25.1933 22.9185 21.255 18.1438 21.255H17.1155C12.3408 21.255 8.44754 25.1933 8.44754 30.0232V32.9954C8.44754 37.8254 12.3408 41.7636 17.1155 41.7636H18.1438C22.9185 41.7636 26.7383 37.8254 26.7383 32.9954Z" fill="white"/>
<path d="M11.3097 20.2296H15.0796L13.1947 26.4961L11.3097 20.2296Z" fill="white"/>
<path d="M20.1062 20.2296H23.8761L21.9911 26.4961L20.1062 20.2296Z" fill="white"/>
<path d="M127.39 28.6922C133.415 30.5699 142 32.8233 142 40.7099C142 46.4934 135.147 50.7747 127.239 50.7747C122.344 50.7747 117.072 49.3476 112.78 45.6671L115.943 37.6303C119.256 40.785 125.281 42.9632 129.724 42.9632C132.059 42.9632 133.942 42.3623 134.77 40.9352C136.201 38.6068 134.168 36.2783 125.281 33.6495C118.353 31.6215 111.349 27.9411 112.855 20.7305C113.683 16.3741 118.804 12.8439 125.582 12.8439C134.77 12.8439 140.193 16.4492 140.193 16.4492L137.18 24.486C136.879 24.4109 130.026 20.8056 125.432 20.8056C123.85 20.8056 122.495 21.2563 121.817 22.3829C120.16 25.0118 123.172 27.3402 127.39 28.6922Z" fill="white"/>
<path d="M98.4154 13.7452H107.076V50.0987H98.4907V48.8969C99.9969 47.62 102.407 45.1414 102.407 42.9632V41.461C102.407 41.461 98.0388 51 88.3238 51C78.7594 51 71.0024 43.2636 71.0024 33.7246V30.2695C71.0024 20.7305 78.7594 12.9941 88.3238 12.9941C92.6918 12.9941 96.0054 14.3461 98.4154 16.6745V13.7452ZM98.4154 33.4993V30.4948C98.4154 25.6127 94.4992 21.6318 89.6041 21.6318H88.5497C83.6545 21.6318 79.6631 25.6127 79.6631 30.4948V33.4993C79.6631 38.3814 83.6545 42.3623 88.5497 42.3623H89.6041C94.4992 42.3623 98.4154 38.3814 98.4154 33.4993Z" fill="white"/>
<path d="M61.4321 8.56259H60.9803C58.721 8.56259 56.9135 6.75994 56.9135 4.50663V4.05597C56.9135 1.80265 58.721 0 60.9803 0H61.4321C63.6915 0 65.5742 1.80265 65.5742 4.05597V4.50663C65.5742 6.75994 63.6915 8.56259 61.4321 8.56259ZM65.5742 50.0987H56.9135V13.7452H65.5742V50.0987Z" fill="white"/>
<path d="M50.1297 50.0987H41.469V0H50.1297V50.0987Z" fill="white"/>
<rect x="146" y="32" width="35" height="19" rx="9.5" fill="#A3AFF3"/>
<path d="M169.064 37.0132C170.745 37.0132 172.108 38.3764 172.108 40.0573V40.6661C172.108 42.347 170.745 43.7103 169.064 43.7103H168.813C167.132 43.7103 165.769 42.347 165.769 40.6661V40.0573C165.769 38.3764 167.132 37.0132 168.813 37.0132H169.064ZM170.586 40.6264V40.0838C170.586 39.2235 169.898 38.5352 169.038 38.5352H168.852C167.992 38.5352 167.291 39.2235 167.291 40.0838V40.6264C167.291 41.4867 167.992 42.1882 168.852 42.1882H169.038C169.898 42.1882 170.586 41.4867 170.586 40.6264Z" fill="#1C2659"/>
<path d="M165.41 37C165.463 37 165.688 37.0132 165.688 37.0132C165.688 37.0132 165.093 38.6279 165.066 38.7074C164.365 38.5221 163.716 39.1177 163.716 39.7927V43.5647H162.194V37.1588H163.716V37.3574C163.716 37.3574 163.425 37.7279 163.332 37.8471C163.173 38.0721 163.107 38.3103 163.107 38.5088V38.7338C163.107 38.7338 163.69 37 165.41 37Z" fill="#1C2659"/>
<path d="M158.187 37.0132C159.868 37.0132 161.231 38.3764 161.231 40.0573V40.6529C161.231 42.347 159.868 43.7103 158.187 43.7103C157.433 43.7103 156.837 43.4588 156.414 43.0485V46H154.892V37.1588H156.414V37.3838C156.122 37.622 155.712 38.0191 155.712 38.4294V38.6808C155.712 38.6808 156.48 37.0132 158.187 37.0132ZM159.722 40.6264V40.0838C159.722 39.2235 159.021 38.5352 158.161 38.5352H157.975C157.115 38.5352 156.414 39.2235 156.414 40.0838V40.6264C156.414 41.4867 157.115 42.1882 157.975 42.1882H158.161C159.021 42.1882 159.722 41.4867 159.722 40.6264Z" fill="#1C2659"/>
</svg>
