<svg width="20" height="21" viewBox="0 0 20 21" fill="none" xmlns="http://www.w3.org/2000/svg">
    <path
        d="M10 0C10.2652 0 10.5196 0.105357 10.7071 0.292893C10.8946 0.48043 11 0.734784 11 1V2H12.5C14.4891 2 16.3968 2.79018 17.8033 4.1967C19.2098 5.60322 20 7.51088 20 9.5C20 11.4891 19.2098 13.3968 17.8033 14.8033C16.3968 16.2098 14.4891 17 12.5 17H7.5C5.51088 17 3.60322 16.2098 2.1967 14.8033C0.790176 13.3968 0 11.4891 0 9.5C0 7.51088 0.790176 5.60322 2.1967 4.1967C3.60322 2.79018 5.51088 2 7.5 2H9V1C9 0.734784 9.10536 0.48043 9.29289 0.292893C9.48043 0.105357 9.73478 0 10 0ZM12.5 4H7.5C6.04131 4 4.64236 4.57946 3.61091 5.61091C2.57946 6.64236 2 8.04131 2 9.5C2 10.9587 2.57946 12.3576 3.61091 13.3891C4.64236 14.4205 6.04131 15 7.5 15H12.5C13.9587 15 15.3576 14.4205 16.3891 13.3891C17.4205 12.3576 18 10.9587 18 9.5C18 8.04131 17.4205 6.64236 16.3891 5.61091C15.3576 4.57946 13.9587 4 12.5 4ZM13.5 7C13.7449 7.00003 13.9813 7.08996 14.1644 7.25272C14.3474 7.41547 14.4643 7.63975 14.493 7.883L14.5 8V8.5H15C15.2549 8.50028 15.5 8.59788 15.6854 8.77285C15.8707 8.94782 15.9822 9.18695 15.9972 9.44139C16.0121 9.69584 15.9293 9.94638 15.7657 10.1418C15.6021 10.3373 15.3701 10.4629 15.117 10.493L15 10.5H14.5V11C14.4997 11.2549 14.4021 11.5 14.2272 11.6854C14.0522 11.8707 13.813 11.9822 13.5586 11.9972C13.3042 12.0121 13.0536 11.9293 12.8582 11.7657C12.6627 11.6021 12.5371 11.3701 12.507 11.117L12.5 11V10.5H12C11.7451 10.4997 11.5 10.4021 11.3146 10.2272C11.1293 10.0522 11.0178 9.81305 11.0028 9.55861C10.9879 9.30416 11.0707 9.05362 11.2343 8.85817C11.3979 8.66271 11.6299 8.5371 11.883 8.507L12 8.5H12.5V8C12.5 7.73478 12.6054 7.48043 12.7929 7.29289C12.9804 7.10536 13.2348 7 13.5 7ZM6.5 7C7.16304 7 7.79893 7.26339 8.26777 7.73223C8.73661 8.20107 9 8.83696 9 9.5C9 10.163 8.73661 10.7989 8.26777 11.2678C7.79893 11.7366 7.16304 12 6.5 12C5.83696 12 5.20107 11.7366 4.73223 11.2678C4.26339 10.7989 4 10.163 4 9.5C4 8.83696 4.26339 8.20107 4.73223 7.73223C5.20107 7.26339 5.83696 7 6.5 7ZM6.5 9C6.36739 9 6.24021 9.05268 6.14645 9.14645C6.05268 9.24021 6 9.36739 6 9.5C6 9.63261 6.05268 9.75979 6.14645 9.85355C6.24021 9.94732 6.36739 10 6.5 10C6.63261 10 6.75979 9.94732 6.85355 9.85355C6.94732 9.75979 7 9.63261 7 9.5C7 9.36739 6.94732 9.24021 6.85355 9.14645C6.75979 9.05268 6.63261 9 6.5 9Z"
        fill="currentColor" />
</svg>