<svg width="15" height="15" viewBox="0 0 15 15" fill="none" xmlns="http://www.w3.org/2000/svg">
<path d="M13.659 8.79907C13.8905 8.61992 14.0778 8.39015 14.2068 8.12736C14.3357 7.86458 14.4027 7.57577 14.4027 7.28307C14.4027 6.99037 14.3357 6.70155 14.2068 6.43877C14.0778 6.17599 13.8905 5.94621 13.659 5.76707C10.6612 3.44824 7.31418 1.62014 3.743 0.351066L3.09 0.119066C1.842 -0.323934 0.523 0.520066 0.354 1.80907C-0.118 5.44314 -0.118 9.123 0.354 12.7571C0.524 14.0461 1.842 14.8901 3.09 14.4471L3.743 14.2151C7.31418 12.946 10.6612 11.1179 13.659 8.79907Z" fill="white"/>
</svg>
