<svg width="289" height="378" viewBox="0 0 289 378" fill="none" xmlns="http://www.w3.org/2000/svg">
<path d="M281.843 123.005C276.625 128.346 271.272 130.999 261.741 133.249C258.227 134.081 263.093 159.153 266.909 157.523C275.605 153.821 284.349 144.205 286.937 125.831C287.542 121.539 285.365 119.394 281.843 123.005Z" fill="#0D0D0D"/>
<path d="M284.381 155.025C279.472 159.142 274.674 160.951 266.348 162.062C263.281 162.473 265.299 184.29 268.698 183.227C276.44 180.806 284.719 173.335 288.494 157.875C289.375 154.259 287.698 152.246 284.384 155.025H284.381Z" fill="#0D0D0D"/>
<path d="M263.68 69.552C258.31 77.0937 251.931 85.8076 244.39 91.6189C241.91 93.5315 239.342 93.4081 241.372 99.5895C243.638 106.5 252.531 118.707 256.147 126.207C258.633 131.363 261.903 128.211 263.016 126.451C269.03 116.917 271.119 105.386 272.688 94.2983C273.593 87.9024 274.501 80.3548 272.935 73.7209C271.912 69.3787 268.41 62.9034 263.68 69.5491V69.552Z" fill="#0D0D0D"/>
<path d="M283.191 358.842C282.163 354.021 281.17 353.466 277.447 353.912C266.906 355.182 259.582 356.242 251.408 355.044C247.801 354.515 244.613 353.516 242.028 352.167C239.451 350.825 237.3 348.877 235.928 347.052C227.394 335.694 230.147 315.305 228.363 300.192C241.798 288.887 252.44 274.077 260.431 256.282C277.23 218.873 282.759 178.664 269.048 136.496C259.235 106.314 237.465 73.4448 205.779 66.4584C167.859 58.0999 91.9869 77.082 100.616 148.976C101.964 160.214 106.618 170.191 111.33 180.139C109.189 189.338 105.963 198.231 101.497 206.066C93.7996 219.566 81.3721 228.307 67.3023 234.153C63.909 235.563 67.0438 244.756 67.4345 244.938C67.8782 245.144 68.3189 245.323 68.7625 245.473C72.7787 246.842 76.8154 246.046 80.7963 245.705C95.2275 244.471 108.713 230.916 116.319 219.743C117.568 217.912 118.71 216.041 119.777 214.146C120.688 208.22 120.053 202.262 118.807 196.16C118.787 196.057 118.916 195.998 118.975 196.089C122.436 201.422 123.167 208.796 121.963 215.242C120.453 230.125 108.384 244.474 102.763 257.422C98.2212 267.887 97.7189 277.937 100.204 286.96C95.5742 289.448 91.4463 292.839 88.0677 297.425C77.6556 311.562 81.7159 337.845 89.8951 349.814C88.2587 350.164 84.4658 351.853 82.3182 353.739C74.9762 360.188 78.1815 359.785 83.5168 360.02C87.5888 360.197 91.1525 359.448 95.4419 359.171C101.794 358.763 99.3876 355.525 97.0725 345.898C94.4313 334.889 89.7629 323.502 97.898 313.598C100.052 310.974 104.808 308.759 109.811 306.897C108.281 304.681 107.056 302.325 106.271 299.837C106.236 299.728 106.38 299.687 106.439 299.766C108.099 302.011 109.691 304.211 111.407 306.312C111.413 306.312 111.421 306.306 111.427 306.303C123.74 319.183 143.562 326.789 164.492 325.091C179.217 323.895 192.418 320.579 204.16 315.34C205.339 319.947 206.954 324.536 207.942 328.934C213.386 353.237 222.94 365.94 248.823 367.871C256.294 368.429 265.622 367.744 273.39 364.701C273.287 366.475 273.258 368.282 273.375 370.03C273.114 370.112 271.057 371.452 268.927 372.991C263.548 376.869 263.704 377.792 269.674 377.951C275.479 378.103 283.793 377.998 284.252 376.232C284.974 373.447 284.428 364.639 283.194 358.851L283.191 358.842Z" fill="white"/>
<path d="M241.264 269.476C239.198 268.171 237.441 271.336 239.378 272.699C253.967 282.973 253.23 305.721 243.059 318.783C234.298 330.033 218.765 333.793 205.327 335.412C181.903 338.233 152.388 331.358 139.72 355.963C138.597 355.563 137.443 355.278 136.253 355.184C133.509 354.967 132.675 355.496 132.298 357.655C131.914 359.844 131.981 362.203 132.31 364.521C133.556 373.35 132.498 375.48 141.109 368.746C143.066 367.221 144.852 365.473 146.603 363.704C147.69 362.603 148.234 361.539 146.262 359.876C145.275 359.045 144.206 358.263 143.081 357.579C152.641 342.407 170.727 341.693 187.376 341.729C201.422 341.761 215.889 340.407 229.015 335.127C241.102 330.268 250.248 321.172 253.923 308.571C257.972 294.692 253.867 277.432 241.267 269.476H241.264Z" fill="white"/>
<path d="M269.615 244.806C266.548 228.594 253.071 213.852 236.131 213.302C228.19 213.044 220.187 216.041 212.592 217.933C201.748 220.636 191.084 220.307 181.574 213.975C170.568 206.648 160.893 184.781 144.585 195.02C133.297 202.106 131.808 220.515 137.69 232.097C124.096 228.556 110.37 225.43 96.7229 222.131C79.7416 218.027 62.628 213.488 45.3765 210.591C44.5098 210.444 40.9461 209.718 40.4172 209.997C35.8487 212.418 -2.66768 228.177 0.146867 232.978C2.52954 237.047 14.1579 236.512 17.9302 236.556C26.0037 236.656 34.9585 235.061 40.2645 228.58C71.8826 238.774 104.194 247.485 136.088 256.881C128.926 265.401 123.026 282.059 134.755 288.996C148.016 296.837 164.998 286.545 178.765 285.17C189.271 284.122 196.645 292.642 202.627 299.978C207.592 306.065 213.277 310.545 221.159 311.932C235.191 314.403 249.017 303.838 256.955 293.35C267.508 279.406 272.908 262.196 269.618 244.8L269.615 244.806ZM16.3085 232.525C13.1972 232.47 10.0918 232.105 7.03633 231.547C6.66321 231.48 6.29305 231.394 5.92581 231.309C16.4084 225.198 28.5656 221.655 38.8249 215.15C38.6985 216.017 38.6075 216.887 38.5017 217.733C38.155 220.539 37.9288 223.362 37.8201 226.188C32.285 231.906 23.9031 232.664 16.3085 232.528V232.525ZM265.029 265.028C262 281.281 251.088 297.04 236.331 304.634C228.663 308.58 220.16 308.169 212.965 303.544C206.067 299.111 202.039 290.82 195.558 285.696C184.135 276.665 170.621 281.336 157.961 284.583C150.699 286.445 140.519 289.451 135.134 282.244C130.08 275.478 135.58 266.262 139.629 259.757C141.985 255.97 142.079 254.851 138.074 253.523C106.4 243.008 73.9068 232.819 41.375 225.422C41.4837 224.584 41.563 223.738 41.6335 222.895C90.0949 235.693 138.374 249.181 186.759 262.266C200.509 265.986 214.246 269.975 228.125 273.201C228.278 273.236 228.346 273.001 228.19 272.966C213.609 269.576 199.222 264.902 184.788 260.944C157.206 253.385 129.604 245.911 101.999 238.442C81.9157 233.01 61.8407 227.522 41.6776 222.393C41.7393 221.602 41.7981 220.812 41.8686 220.025C41.8686 220.001 41.8686 219.975 41.8745 219.951C91.1849 233.201 140.572 246.204 190.032 258.873C205.165 262.748 220.287 266.75 235.502 270.301C235.67 270.343 235.743 270.081 235.573 270.043C219.875 266.379 204.346 261.77 188.766 257.636C160.597 250.162 132.387 242.849 104.194 235.472C83.4405 230.043 62.6868 224.619 41.9303 219.202C41.9861 218.362 42.0301 217.457 42.1124 216.549C92.2983 230.172 143.098 241.806 193.684 253.837C206.772 256.949 219.943 259.801 232.982 263.118C233.143 263.159 233.211 262.913 233.049 262.871C188.081 251.434 142.881 240.896 97.8099 229.867C79.2451 225.322 60.6597 220.815 42.1741 215.947C42.2681 215.115 42.4091 214.301 42.6265 213.546C59.3287 218.015 76.3953 221.35 93.2032 225.427C108.686 229.188 124.107 233.436 139.693 236.75C143.865 237.643 144.535 236.054 142.373 232.49C135.656 221.438 138.001 194.288 155.253 197.197C164.09 198.686 169.687 209.26 175.692 214.912C180.492 219.434 186.462 222.081 192.843 223.447C207.709 226.632 221.5 218.262 236.14 217.812C259.655 217.092 268.504 246.44 265.038 265.034L265.029 265.028Z" fill="#0D0D0D"/>
<path d="M219.068 290.247C217.663 290.635 216.938 291.831 216.814 293.206C216.805 293.267 216.802 293.329 216.808 293.388C216.841 295.177 218.304 296.314 219.878 296.252C219.852 296.261 219.823 296.267 219.796 296.276C219.826 296.276 219.852 296.276 219.881 296.276C219.978 296.273 220.064 296.238 220.158 296.226C220.302 296.208 220.44 296.191 220.584 296.15C220.766 296.103 220.936 296.038 221.101 295.959C221.136 295.941 221.177 295.935 221.212 295.918C221.242 295.9 221.274 295.885 221.303 295.87C221.28 295.876 221.256 295.882 221.236 295.888C222.943 294.983 223.616 292.601 222.053 291.035C221.277 290.262 220.122 289.956 219.068 290.244V290.247Z" fill="#0D0D0D"/>
<path d="M234.051 291.252C232.371 291.252 230.966 292.653 230.966 294.337C230.966 296.02 232.371 297.422 234.051 297.422C235.732 297.422 237.133 296.017 237.133 294.337C237.133 292.656 235.729 291.252 234.051 291.252Z" fill="#0D0D0D"/>
<path d="M230.714 281.698C229.803 280.141 228.019 279.888 226.495 280.59C225.972 280.828 225.522 281.325 225.252 281.821C224.45 283.299 224.876 285.173 226.36 286.04C227.479 286.695 228.954 286.534 229.923 285.717C231.172 284.874 231.442 282.938 230.717 281.695L230.714 281.698Z" fill="#0D0D0D"/>
<path d="M220.581 167.617C224.044 180.236 227.026 192.079 224.024 206.002C222.387 213.585 218.991 220.286 215.251 227.011C211.826 233.172 208.379 239.856 203.955 245.52C202.412 245.103 200.788 244.891 199.383 244.733C195.934 244.339 192.738 244.577 190.032 246.913C189.938 246.995 189.953 247.189 190.073 247.239C192.629 248.329 195.241 248.799 197.944 249.286C190.267 250.967 182.937 255.042 182.919 262.992C182.919 263.168 183.148 263.274 183.275 263.139C187.162 258.932 190.531 256.687 196.034 254.889C196.375 254.777 196.704 254.68 197.039 254.578C193.828 259.61 192.512 265.88 193.922 271.923C193.954 272.067 194.192 272.114 194.26 271.967C196.066 267.878 197.756 263.738 199.88 259.792C200.062 264.478 201.892 269.05 205.497 271.509C205.644 271.606 205.797 271.444 205.768 271.3C205.468 269.714 203.899 267.287 204.619 265.671C205.212 264.343 205.101 262.707 205.159 261.285C205.233 259.549 205.353 257.836 205.474 256.123C205.621 256.073 205.768 256.032 205.914 255.967C215.589 251.587 223.906 247.365 230.852 239.048C237.371 231.239 241.205 221.179 243.529 211.378C247.128 196.198 250.048 179.487 242.216 160.919C239.78 155.143 219.394 163.281 220.587 167.62L220.581 167.617Z" fill="#A3AFF3"/>
<path d="M73.566 240.302C73.9479 234.985 75.6578 229.585 75.3053 224.288C75.2965 224.141 75.1231 224.058 75.0115 224.167C71.6035 227.487 70.0552 232.282 69.4353 237.021C67.5168 232.382 67.1025 227.722 66.5825 222.351C66.5708 222.219 66.3974 222.105 66.2917 222.231C63.5006 225.513 63.1451 229.961 63.7269 234.071C63.8708 235.093 64.2292 236.506 64.7581 237.981C61.5704 234.324 59.8958 228.906 58.2388 224.822C58.1594 224.625 57.8833 224.602 57.8128 224.822C55.7268 231.339 58.8528 240.273 64.761 243.989C66.1947 244.891 67.6754 245.429 69.1826 245.696C72.3996 246.26 73.3662 242.932 73.5631 240.299L73.566 240.302Z" fill="white"/>
<path d="M170.03 137.263C168.168 130.79 164.031 123.334 158.69 117.229C143.53 99.8979 115.875 101.878 112.221 137.33C110.467 154.35 115.778 173.2 129.546 180.812C141.462 187.402 156.107 181.646 164.751 172.397C173.38 163.166 173.297 148.618 170.027 137.263H170.03Z" fill="#0D0D0D"/>
<path d="M96.8169 21.6782C115.411 48.343 119.589 60.7793 125.594 85.743C127.571 93.9604 134.446 92.2799 142.082 87.6204C152.752 81.104 159.395 76.656 173.906 73.4418C177.804 72.5781 178.709 72.628 175.26 65.4124C148.052 8.44281 78.114 -5.13929 96.814 21.6812L96.8169 21.6782Z" fill="#0D0D0D"/>
<path d="M225.704 35.9507C220.175 24.9511 213.083 13.8075 204.158 4.83206C192.761 -6.64648 192.329 5.12584 193.346 11.322C196.346 29.6488 195.837 49.4946 188.96 66.329C187.564 69.74 189.433 70.7859 190.596 70.877C224.121 73.5065 238.379 85.6343 238.42 84.9174C239.389 68.0918 233.149 50.755 225.707 35.9537L225.704 35.9507Z" fill="#0D0D0D"/>
<path d="M146.527 160.326C144.535 156.929 140.818 154.793 136.879 154.793C134.863 154.799 132.983 155.307 131.241 156.318C129.56 157.311 128.223 158.648 127.23 160.326C127.216 160.355 127.204 160.387 127.192 160.417C126.187 162.153 125.679 164.021 125.673 166.028C125.682 168.035 126.187 169.906 127.192 171.64C128.179 173.311 129.51 174.639 131.182 175.629C132.066 176.002 132.954 176.375 133.838 176.752C135.809 177.28 137.781 177.28 139.749 176.752C139.781 176.746 139.814 176.74 139.846 176.734C142.549 176.323 145.202 173.855 146.524 171.601C148.542 168.158 148.542 163.769 146.524 160.323L146.527 160.326Z" fill="white"/>
<path d="M136.229 167.418C136.203 167.397 136.174 167.377 136.147 167.356C135.327 166.771 134.055 166.871 133.227 167.356C132.348 167.873 131.796 168.834 131.796 169.853C131.796 170.873 132.348 171.836 133.227 172.351C134.055 172.838 135.33 172.938 136.147 172.351C136.174 172.33 136.203 172.312 136.229 172.289C137.061 171.695 137.628 170.92 137.628 169.85C137.628 168.781 137.061 168.005 136.229 167.412V167.418Z" fill="#A3AFF3"/>
<path d="M138.474 162.735C138.474 162.735 138.448 162.714 138.433 162.705C138.013 162.406 137.363 162.456 136.937 162.705C136.488 162.97 136.206 163.463 136.206 163.983C136.206 164.503 136.488 164.997 136.937 165.261C137.363 165.511 138.013 165.561 138.433 165.261C138.448 165.253 138.462 165.241 138.474 165.232C138.9 164.929 139.191 164.53 139.191 163.983C139.191 163.437 138.9 163.04 138.474 162.735Z" fill="#A3AFF3"/>
<path d="M156.66 109.264C161.134 113.442 165.027 117.57 168.1 122.937C171.476 128.837 173.782 135.271 175.222 141.905C178.057 154.949 175.665 168.837 164.489 177.175C164.337 177.289 164.422 177.595 164.63 177.513C177.992 172.13 179.896 156.515 177.901 143.944C176.714 136.487 173.856 129.301 169.998 122.835C166.904 117.643 162.471 111.635 156.81 109.067C156.686 109.009 156.539 109.161 156.654 109.27L156.66 109.264Z" fill="#A3AFF3"/>
<path d="M109.294 132.48C109.985 123.04 116.892 110.739 125.779 106.782C126.014 106.679 125.829 106.37 125.618 106.403C114.815 107.998 108.363 122.397 109.147 132.48C109.156 132.574 109.286 132.574 109.294 132.48Z" fill="#A3AFF3"/>
<path d="M159.392 180.768C160.914 180.165 162.442 179.795 163.432 178.4C163.526 178.268 163.373 178.103 163.232 178.138C161.684 178.558 160.417 179.463 159.283 180.583C159.21 180.656 159.283 180.809 159.392 180.768Z" fill="#A3AFF3"/>
<path d="M177.319 129.084C182.837 141.981 184.932 159.368 177.24 171.951C177.123 172.142 177.381 172.321 177.54 172.18C182.602 167.65 183.642 159.988 183.962 153.583C184.385 145.119 182.74 135.844 177.49 128.984C177.413 128.884 177.27 128.966 177.322 129.084H177.319Z" fill="#A3AFF3"/>
<path d="M219.696 174.907C216.203 165.89 242.23 155.792 247.469 163.681C247.721 164.063 248.259 163.972 248.365 163.563C250.633 154.755 238.229 155.919 230.264 158.765C225.443 160.49 219.185 163.739 216.591 168.323C214.972 171.181 216.279 174.639 219.353 175.253C219.541 175.288 219.782 175.121 219.699 174.907H219.696Z" fill="#0D0D0D"/>
<path d="M140.366 37.4844C150.581 46.0896 155.784 57.4212 162.985 68.3122C164.002 69.8517 166.752 68.9086 166.094 67.0019C161.857 54.689 154.245 41.1803 142.373 34.8784C140.774 34.0294 138.865 36.2211 140.363 37.4844H140.366Z" fill="#A3AFF3"/>
<path d="M134.026 31.4733C134.373 31.9493 134.79 32.3195 135.192 32.7455C135.709 33.2919 136.141 33.8178 136.761 34.2585C137.246 34.6022 137.992 34.5464 138.483 34.2585C139.194 33.8413 139.396 33.098 139.267 32.3312C138.991 30.6654 137.161 29.0319 135.466 28.9585C134.276 28.9085 133.28 30.448 134.023 31.4733H134.026Z" fill="#A3AFF3"/>
<path d="M212.375 30.4921C220.813 41.7943 222.34 54.1895 225.234 67.5307C225.669 69.5432 228.625 68.9879 228.698 67.0636C229.192 53.9074 224.609 37.834 214.99 28.4766C213.679 27.2016 211.214 28.9379 212.375 30.495V30.4921Z" fill="#A3AFF3"/>
<path d="M267.065 85.2317C266.139 91.0342 264.641 96.675 263.677 102.451C263.386 104.205 265.954 105.671 266.797 103.767C269.207 98.3349 271.049 91.657 270.299 85.6695C270.091 84.0037 267.385 83.231 267.065 85.2317Z" fill="#A3AFF3"/>
<path d="M279.169 133.796C278.661 134.757 278.267 135.764 277.774 136.734C277.215 137.83 276.44 138.743 275.691 139.713C274.559 141.17 275.94 143.315 277.729 142.357C280.215 141.026 281.634 137.712 282.201 135.077C282.583 133.302 280.089 132.071 279.169 133.799V133.796Z" fill="#A3AFF3"/>
<path d="M280.447 168.951C282.386 168.017 283.614 165.734 283.999 163.681C284.346 161.842 281.934 160.655 280.9 162.376C280.086 163.731 279.525 165.185 278.467 166.387C277.212 167.808 278.767 169.762 280.447 168.951Z" fill="#A3AFF3"/>
<path d="M176.347 79.0973C178.609 79.1561 181.03 79.6291 183.228 78.8975C185.034 78.2953 184.547 75.9772 182.802 75.7569C180.204 75.4308 178.104 77.2347 176.191 78.7213C176.03 78.8476 176.174 79.0944 176.347 79.0973Z" fill="#A3AFF3"/>
<path d="M190.023 77.3552C190.296 78.689 192.996 79.0738 194.057 79.1914C194.956 79.2883 195.837 79.353 196.657 78.8711C196.942 78.7037 197.497 78.1102 197.389 77.7195C196.886 75.895 194.692 75.7716 193.105 75.8245C192.5 75.8451 189.809 76.3298 190.02 77.3581L190.023 77.3552Z" fill="#A3AFF3"/>
<path d="M203.922 79.5763C205.095 80.1374 206.235 80.7691 207.419 81.2891C208.118 81.5946 208.823 81.9354 209.569 82.0853C210.292 82.2292 210.994 81.9824 211.699 81.8414C211.934 81.7944 212.034 81.4948 211.92 81.3038C210.95 79.6585 209.978 78.9828 208.1 78.4657C206.802 78.1073 204.857 78.1954 203.881 79.2531C203.796 79.3442 203.796 79.5205 203.922 79.5792V79.5763Z" fill="#A3AFF3"/>
<path d="M217.804 84.2887C218.556 85.2876 219.605 86.0632 220.739 86.5774C222.123 87.2061 223.204 87.4176 224.614 86.8183C224.776 86.7507 224.873 86.4951 224.811 86.3335C223.821 83.8157 220.537 83.3985 218.13 83.7158C217.884 83.7481 217.607 84.0272 217.804 84.2858V84.2887Z" fill="#A3AFF3"/>
<path d="M230.514 89.6945C230.86 90.9137 232.112 91.8245 233.111 92.5061C233.91 93.0496 235.444 94.1866 236.401 93.2288C236.639 92.9908 236.484 92.4826 236.413 92.2123C236.219 91.4661 235.546 91.0782 234.927 90.7316C233.731 90.0646 232.335 89.2009 230.931 89.1539C230.652 89.1451 230.443 89.433 230.517 89.6945H230.514Z" fill="#A3AFF3"/>
<path d="M241.687 97.1569C241.737 97.5535 241.751 97.7592 241.966 98.1294C242.26 98.6376 242.633 99.093 242.994 99.5543C243.417 100.095 243.855 100.489 244.416 100.882C244.625 101.029 245.027 101.111 245.277 101.111C245.488 101.111 245.803 100.879 245.973 100.906C246.214 100.944 246.54 100.744 246.426 100.453C246.364 100.292 246.461 100.086 246.461 99.9303C246.461 99.6218 246.323 99.378 246.185 99.1165C245.891 98.5583 245.133 98.1734 244.587 97.9237C243.696 97.5212 242.859 97.0482 241.895 96.9483C241.793 96.9366 241.675 97.0512 241.687 97.1569Z" fill="#A3AFF3"/>
<path d="M248.094 105.345C248.456 107.093 249.945 110.98 252.343 109.875C252.692 109.714 252.728 109.126 252.748 108.812C252.801 108.086 252.072 107.463 251.588 107.037C250.668 106.223 249.622 105.624 248.597 104.957C248.327 104.781 248.036 105.069 248.094 105.345Z" fill="#A3AFF3"/>
<path d="M254.705 116.55C255.154 117.902 255.507 119.297 255.971 120.655C256.406 121.927 256.744 123.272 257.925 124.068C258.107 124.192 258.327 124.06 258.392 123.877C258.906 122.444 258.324 121.007 257.804 119.667C257.229 118.19 256.438 117.067 255.081 116.259C254.893 116.148 254.631 116.333 254.702 116.55H254.705Z" fill="#A3AFF3"/>
<path d="M260.413 127.426C259.735 128.096 260.243 129.695 260.575 130.426C260.889 131.122 261.151 131.657 261.771 132.124C262.085 132.362 262.781 132.518 263.101 132.201C264.042 131.257 263.166 129.783 262.54 128.931C262.244 128.525 261.107 126.742 260.416 127.426H260.413Z" fill="#A3AFF3"/>
<path d="M264.13 137.313C263.918 138.262 264.303 139.31 264.415 140.259C264.529 141.214 264.855 142.378 265.71 142.903C266.13 143.165 266.624 142.898 266.774 142.472C267.103 141.529 266.515 140.635 266.128 139.795C265.749 138.978 265.161 137.838 264.521 137.21C264.4 137.092 264.171 137.136 264.133 137.313H264.13Z" fill="#A3AFF3"/>
<path d="M267.597 149.796C267.456 150.774 267.602 151.808 267.77 152.781C267.881 153.427 268.002 154.091 268.211 154.711C268.375 155.196 268.813 155.466 269.124 155.842C269.245 155.989 269.453 155.916 269.547 155.789C270.382 154.67 270.364 153.93 269.985 152.575C269.694 151.532 269.018 150.413 268.31 149.605C268.114 149.379 267.641 149.479 267.594 149.796H267.597Z" fill="#A3AFF3"/>
<path d="M270.332 163.751C270.379 164.6 270.352 165.449 270.352 166.298C270.352 167.13 270.17 168.067 270.673 168.778C271.054 169.316 271.751 169.322 272.133 168.778C272.67 168.014 272.456 166.912 272.312 166.034C272.162 165.109 271.845 164.277 271.357 163.475C271.084 163.029 270.299 163.187 270.329 163.754L270.332 163.751Z" fill="#A3AFF3"/>
<path d="M271.883 173.232C271.251 174.213 271.213 175.647 271.213 176.787C271.213 177.451 271.025 179.349 272.188 179.349C274.483 179.349 273.152 174.213 272.494 173.232C272.344 173.006 272.03 173 271.883 173.232Z" fill="#A3AFF3"/>
<path d="M271.883 185.245C271.472 186.006 271.436 186.887 271.266 187.725C271.078 188.638 270.634 189.605 270.828 190.53C270.922 190.98 271.548 191.253 271.933 190.98C273.408 189.931 273.281 186.705 272.497 185.245C272.374 185.013 272.009 185.013 271.886 185.245H271.883Z" fill="#A3AFF3"/>
<path d="M270.755 196.788C269.815 197.922 269.397 200.008 269.427 201.457C269.436 201.797 269.615 202.209 269.944 202.359C270.123 202.441 270.273 202.523 270.473 202.503C270.969 202.45 271.316 202.215 271.48 201.736C271.93 200.452 272.171 198.328 271.674 197.035C271.542 196.688 271.043 196.442 270.755 196.791V196.788Z" fill="#A3AFF3"/>
<path d="M268.839 207.668C268.249 208.337 267.987 209.151 267.735 209.994C267.567 210.558 267.356 211.111 267.171 211.669C267.032 212.08 267.297 212.406 267.485 212.738C267.558 212.865 267.693 212.903 267.832 212.879C268.942 212.689 269.162 211.834 269.394 210.811C269.624 209.809 269.747 208.772 269.35 207.803C269.271 207.609 269.007 207.477 268.839 207.668Z" fill="#A3AFF3"/>
<path d="M266.086 217.977C265.378 218.271 265.035 219.184 264.8 219.872C264.488 220.788 263.989 221.925 264.529 222.824C264.729 223.154 265.246 223.356 265.587 223.101C266.436 222.466 266.501 221.382 266.689 220.392C266.821 219.69 266.988 218.629 266.445 218.068C266.362 217.983 266.204 217.927 266.086 217.974V217.977Z" fill="#A3AFF3"/>
</svg>
