<svg width="30" height="30" viewBox="0 0 30 30" fill="none" xmlns="http://www.w3.org/2000/svg">

    <path fill-rule="evenodd" clip-rule="evenodd"
        d="M20.1923 18.6204V19.4566C20.1923 20.8153 18.0237 21.9231 15.3128 21.9231H14.7289C12.0181 21.9231 9.80771 20.8153 9.80771 19.4566V18.6204C9.80771 17.2617 12.0181 16.1539 14.7289 16.1539H15.3128C18.0237 16.1539 20.1923 17.2617 20.1923 18.6204Z"
        fill="currentColor" />
    <path
        d="M19.1987 6.68824H23.0769V23.2434H19.2324V22.6961C19.9069 22.1147 20.986 20.9859 20.986 19.994V19.3099C20.986 19.3099 19.03 23.6539 14.6796 23.6539C10.3967 23.6539 6.9231 20.1308 6.9231 15.7868V14.2133C6.9231 9.8693 10.3967 6.34619 14.6796 6.34619C16.6356 6.34619 18.1195 6.96188 19.1987 8.02223V6.68824ZM19.1987 15.6841V14.3159C19.1987 12.0926 17.445 10.2798 15.2529 10.2798H14.7808C12.5887 10.2798 10.8014 12.0926 10.8014 14.3159V15.6841C10.8014 17.9075 12.5887 19.7203 14.7808 19.7203H15.2529C17.445 19.7203 19.1987 17.9075 19.1987 15.6841Z"
        fill="currentColor" />
    <path d="M12.1154 9.80773H13.8462L12.9808 12.6923L12.1154 9.80773Z" fill="currentColor" />
    <path d="M16.1539 9.80773H17.8846L17.0192 12.6923L16.1539 9.80773Z" fill="currentColor" />

</svg>